<mxfile host="app.diagrams.net" agent="Mozilla/5.0 (Macintosh; Intel Mac OS X 10_15_7) AppleWebKit/537.36 (KHTML, like Gecko) Chrome/134.0.0.0 Safari/537.36" version="26.2.8">
  <diagram name="Seite-1" id="oIW_pXSPQGRMS0LYBTzX">
    <mxGraphModel dx="855" dy="1360" grid="0" gridSize="10" guides="1" tooltips="1" connect="1" arrows="1" fold="1" page="0" pageScale="1" pageWidth="827" pageHeight="1169" math="0" shadow="0">
      <root>
        <mxCell id="0" />
        <mxCell id="1" parent="0" />
        <mxCell id="5P0J4FbGZ8Ka_MXwy56o-21" style="edgeStyle=none;curved=1;rounded=0;orthogonalLoop=1;jettySize=auto;html=1;exitX=0.55;exitY=0.95;exitDx=0;exitDy=0;exitPerimeter=0;entryX=0.5;entryY=0;entryDx=0;entryDy=0;fontSize=12;startSize=8;endSize=8;" edge="1" parent="1" source="5P0J4FbGZ8Ka_MXwy56o-14" target="5P0J4FbGZ8Ka_MXwy56o-18">
          <mxGeometry relative="1" as="geometry" />
        </mxCell>
        <mxCell id="5P0J4FbGZ8Ka_MXwy56o-14" value="Supermarkt-Webseiten (Billa, Spar, Hofer)" style="ellipse;shape=cloud;whiteSpace=wrap;html=1;" vertex="1" parent="1">
          <mxGeometry x="-11" y="-535" width="120" height="100" as="geometry" />
        </mxCell>
        <mxCell id="5P0J4FbGZ8Ka_MXwy56o-22" style="edgeStyle=none;curved=1;rounded=0;orthogonalLoop=1;jettySize=auto;html=1;exitX=0.55;exitY=0.95;exitDx=0;exitDy=0;exitPerimeter=0;entryX=0.5;entryY=0;entryDx=0;entryDy=0;fontSize=12;startSize=8;endSize=8;" edge="1" parent="1" source="5P0J4FbGZ8Ka_MXwy56o-15" target="5P0J4FbGZ8Ka_MXwy56o-19">
          <mxGeometry relative="1" as="geometry" />
        </mxCell>
        <mxCell id="5P0J4FbGZ8Ka_MXwy56o-15" value="Statistik austria" style="ellipse;shape=cloud;whiteSpace=wrap;html=1;" vertex="1" parent="1">
          <mxGeometry x="136" y="-535" width="120" height="80" as="geometry" />
        </mxCell>
        <mxCell id="5P0J4FbGZ8Ka_MXwy56o-23" style="edgeStyle=none;curved=1;rounded=0;orthogonalLoop=1;jettySize=auto;html=1;exitX=0.55;exitY=0.95;exitDx=0;exitDy=0;exitPerimeter=0;entryX=0.5;entryY=0;entryDx=0;entryDy=0;fontSize=12;startSize=8;endSize=8;" edge="1" parent="1" source="5P0J4FbGZ8Ka_MXwy56o-16" target="5P0J4FbGZ8Ka_MXwy56o-20">
          <mxGeometry relative="1" as="geometry" />
        </mxCell>
        <mxCell id="5P0J4FbGZ8Ka_MXwy56o-16" value="&lt;div&gt;&lt;div&gt;&lt;font face=&quot;monospace&quot;&gt;Eurostat&lt;/font&gt;&lt;/div&gt;&lt;p class=&quot;&quot; data-end=&quot;654&quot; data-start=&quot;577&quot;&gt;&lt;/p&gt;&lt;/div&gt;&lt;p class=&quot;&quot; data-end=&quot;654&quot; data-start=&quot;577&quot;&gt;&lt;/p&gt;" style="ellipse;shape=cloud;whiteSpace=wrap;html=1;" vertex="1" parent="1">
          <mxGeometry x="283" y="-535" width="120" height="80" as="geometry" />
        </mxCell>
        <mxCell id="5P0J4FbGZ8Ka_MXwy56o-18" value="Webscraper" style="rounded=1;whiteSpace=wrap;html=1;" vertex="1" parent="1">
          <mxGeometry x="-7" y="-402" width="120" height="60" as="geometry" />
        </mxCell>
        <mxCell id="5P0J4FbGZ8Ka_MXwy56o-19" value="CSV Import" style="rounded=1;whiteSpace=wrap;html=1;" vertex="1" parent="1">
          <mxGeometry x="143" y="-402" width="120" height="60" as="geometry" />
        </mxCell>
        <mxCell id="5P0J4FbGZ8Ka_MXwy56o-20" value="Excel/CSV" style="rounded=1;whiteSpace=wrap;html=1;" vertex="1" parent="1">
          <mxGeometry x="288" y="-402" width="120" height="60" as="geometry" />
        </mxCell>
        <mxCell id="5P0J4FbGZ8Ka_MXwy56o-33" style="edgeStyle=none;curved=1;rounded=0;orthogonalLoop=1;jettySize=auto;html=1;exitX=0.145;exitY=1;exitDx=0;exitDy=-4.35;exitPerimeter=0;entryX=0.75;entryY=0;entryDx=0;entryDy=0;fontSize=12;startSize=8;endSize=8;" edge="1" parent="1" source="5P0J4FbGZ8Ka_MXwy56o-25" target="5P0J4FbGZ8Ka_MXwy56o-30">
          <mxGeometry relative="1" as="geometry" />
        </mxCell>
        <mxCell id="5P0J4FbGZ8Ka_MXwy56o-34" style="edgeStyle=none;curved=1;rounded=0;orthogonalLoop=1;jettySize=auto;html=1;exitX=0.5;exitY=1;exitDx=0;exitDy=0;exitPerimeter=0;entryX=0.5;entryY=0;entryDx=0;entryDy=0;fontSize=12;startSize=8;endSize=8;" edge="1" parent="1" source="5P0J4FbGZ8Ka_MXwy56o-25" target="5P0J4FbGZ8Ka_MXwy56o-31">
          <mxGeometry relative="1" as="geometry" />
        </mxCell>
        <mxCell id="5P0J4FbGZ8Ka_MXwy56o-35" style="edgeStyle=none;curved=1;rounded=0;orthogonalLoop=1;jettySize=auto;html=1;exitX=0.855;exitY=1;exitDx=0;exitDy=-4.35;exitPerimeter=0;entryX=0.25;entryY=0;entryDx=0;entryDy=0;fontSize=12;startSize=8;endSize=8;" edge="1" parent="1" source="5P0J4FbGZ8Ka_MXwy56o-25" target="5P0J4FbGZ8Ka_MXwy56o-32">
          <mxGeometry relative="1" as="geometry" />
        </mxCell>
        <mxCell id="5P0J4FbGZ8Ka_MXwy56o-25" value="MongoDB (Docker)" style="shape=cylinder3;whiteSpace=wrap;html=1;boundedLbl=1;backgroundOutline=1;size=15;" vertex="1" parent="1">
          <mxGeometry x="173" y="-305" width="60" height="80" as="geometry" />
        </mxCell>
        <mxCell id="5P0J4FbGZ8Ka_MXwy56o-27" style="edgeStyle=none;curved=1;rounded=0;orthogonalLoop=1;jettySize=auto;html=1;exitX=0.5;exitY=1;exitDx=0;exitDy=0;entryX=0;entryY=0;entryDx=0;entryDy=15;entryPerimeter=0;fontSize=12;startSize=8;endSize=8;" edge="1" parent="1" source="5P0J4FbGZ8Ka_MXwy56o-18" target="5P0J4FbGZ8Ka_MXwy56o-25">
          <mxGeometry relative="1" as="geometry" />
        </mxCell>
        <mxCell id="5P0J4FbGZ8Ka_MXwy56o-28" style="edgeStyle=none;curved=1;rounded=0;orthogonalLoop=1;jettySize=auto;html=1;exitX=0.5;exitY=1;exitDx=0;exitDy=0;entryX=0.5;entryY=0;entryDx=0;entryDy=0;entryPerimeter=0;fontSize=12;startSize=8;endSize=8;" edge="1" parent="1" source="5P0J4FbGZ8Ka_MXwy56o-19" target="5P0J4FbGZ8Ka_MXwy56o-25">
          <mxGeometry relative="1" as="geometry" />
        </mxCell>
        <mxCell id="5P0J4FbGZ8Ka_MXwy56o-29" style="edgeStyle=none;curved=1;rounded=0;orthogonalLoop=1;jettySize=auto;html=1;exitX=0.5;exitY=1;exitDx=0;exitDy=0;entryX=1;entryY=0;entryDx=0;entryDy=15;entryPerimeter=0;fontSize=12;startSize=8;endSize=8;" edge="1" parent="1" source="5P0J4FbGZ8Ka_MXwy56o-20" target="5P0J4FbGZ8Ka_MXwy56o-25">
          <mxGeometry relative="1" as="geometry" />
        </mxCell>
        <mxCell id="5P0J4FbGZ8Ka_MXwy56o-39" style="edgeStyle=none;curved=1;rounded=0;orthogonalLoop=1;jettySize=auto;html=1;exitX=0.5;exitY=1;exitDx=0;exitDy=0;entryX=0.25;entryY=0;entryDx=0;entryDy=0;fontSize=12;startSize=8;endSize=8;" edge="1" parent="1" source="5P0J4FbGZ8Ka_MXwy56o-30" target="5P0J4FbGZ8Ka_MXwy56o-36">
          <mxGeometry relative="1" as="geometry" />
        </mxCell>
        <mxCell id="5P0J4FbGZ8Ka_MXwy56o-43" style="edgeStyle=none;curved=1;rounded=0;orthogonalLoop=1;jettySize=auto;html=1;entryX=0.25;entryY=0;entryDx=0;entryDy=0;fontSize=12;startSize=8;endSize=8;exitX=1;exitY=1;exitDx=0;exitDy=0;" edge="1" parent="1" source="5P0J4FbGZ8Ka_MXwy56o-30" target="5P0J4FbGZ8Ka_MXwy56o-37">
          <mxGeometry relative="1" as="geometry">
            <mxPoint x="88" y="-125" as="sourcePoint" />
          </mxGeometry>
        </mxCell>
        <mxCell id="5P0J4FbGZ8Ka_MXwy56o-30" value="Jupyter Notebook" style="rounded=0;whiteSpace=wrap;html=1;" vertex="1" parent="1">
          <mxGeometry x="-3" y="-187" width="120" height="60" as="geometry" />
        </mxCell>
        <mxCell id="5P0J4FbGZ8Ka_MXwy56o-40" style="edgeStyle=none;curved=1;rounded=0;orthogonalLoop=1;jettySize=auto;html=1;exitX=0;exitY=1;exitDx=0;exitDy=0;entryX=0.5;entryY=0;entryDx=0;entryDy=0;fontSize=12;startSize=8;endSize=8;" edge="1" parent="1" source="5P0J4FbGZ8Ka_MXwy56o-31" target="5P0J4FbGZ8Ka_MXwy56o-36">
          <mxGeometry relative="1" as="geometry" />
        </mxCell>
        <mxCell id="5P0J4FbGZ8Ka_MXwy56o-45" style="edgeStyle=none;curved=1;rounded=0;orthogonalLoop=1;jettySize=auto;html=1;exitX=1;exitY=1;exitDx=0;exitDy=0;entryX=0.5;entryY=0;entryDx=0;entryDy=0;fontSize=12;startSize=8;endSize=8;" edge="1" parent="1" source="5P0J4FbGZ8Ka_MXwy56o-31" target="5P0J4FbGZ8Ka_MXwy56o-37">
          <mxGeometry relative="1" as="geometry" />
        </mxCell>
        <mxCell id="5P0J4FbGZ8Ka_MXwy56o-31" value="Map Reduce&lt;div&gt;(Preisvergleich)&lt;/div&gt;" style="rounded=0;whiteSpace=wrap;html=1;" vertex="1" parent="1">
          <mxGeometry x="146" y="-187" width="120" height="60" as="geometry" />
        </mxCell>
        <mxCell id="5P0J4FbGZ8Ka_MXwy56o-41" style="edgeStyle=none;curved=1;rounded=0;orthogonalLoop=1;jettySize=auto;html=1;exitX=0;exitY=1;exitDx=0;exitDy=0;entryX=0.75;entryY=0;entryDx=0;entryDy=0;fontSize=12;startSize=8;endSize=8;" edge="1" parent="1" source="5P0J4FbGZ8Ka_MXwy56o-32" target="5P0J4FbGZ8Ka_MXwy56o-36">
          <mxGeometry relative="1" as="geometry" />
        </mxCell>
        <mxCell id="5P0J4FbGZ8Ka_MXwy56o-44" style="edgeStyle=none;curved=1;rounded=0;orthogonalLoop=1;jettySize=auto;html=1;exitX=0.25;exitY=1;exitDx=0;exitDy=0;entryX=0.75;entryY=0;entryDx=0;entryDy=0;fontSize=12;startSize=8;endSize=8;" edge="1" parent="1" source="5P0J4FbGZ8Ka_MXwy56o-32" target="5P0J4FbGZ8Ka_MXwy56o-37">
          <mxGeometry relative="1" as="geometry" />
        </mxCell>
        <mxCell id="5P0J4FbGZ8Ka_MXwy56o-32" value="Pandas (Datenbereinigung und Visualisierung)" style="rounded=0;whiteSpace=wrap;html=1;" vertex="1" parent="1">
          <mxGeometry x="295" y="-187" width="120" height="60" as="geometry" />
        </mxCell>
        <mxCell id="5P0J4FbGZ8Ka_MXwy56o-36" value="Visualisierung&amp;nbsp;&lt;div&gt;(Plotly, Matplotlib)&lt;/div&gt;" style="rounded=0;whiteSpace=wrap;html=1;" vertex="1" parent="1">
          <mxGeometry x="67" y="-69" width="120" height="60" as="geometry" />
        </mxCell>
        <mxCell id="5P0J4FbGZ8Ka_MXwy56o-37" value="PrÃ¤sentation" style="rounded=0;whiteSpace=wrap;html=1;" vertex="1" parent="1">
          <mxGeometry x="216" y="-69" width="120" height="60" as="geometry" />
        </mxCell>
      </root>
    </mxGraphModel>
  </diagram>
</mxfile>
